<svg width="1080" height="1080" viewBox="0 0 1080 1080" fill="none" xmlns="http://www.w3.org/2000/svg">
<path d="M738.5 573L730.5 644V756.5L738.5 768.5L850 725.5L925 668.5L920.5 475.5V427L872 385L750 340L613 314.5H397.5L201 346L117.5 370H108.5L730.5 573H738.5Z" fill="white"/>
<path d="M107 376.5L102.5 547L730 769.5V573L107 376.5Z" fill="white"/>
<g filter="url(#filter0_d_401_4)">
<path fill-rule="evenodd" clip-rule="evenodd" d="M371.462 310.054C282.523 321.121 205.375 337.354 122.948 362.349L100.096 369.281L98.5482 461.351L97 553.421L138.539 567.998C161.385 576.02 303.101 626.591 453.466 680.387C666.337 756.539 730.202 777.501 741.971 775.081C765.657 770.205 845.964 736.191 872.752 719.688C886.097 711.467 904.733 695.709 914.171 684.666L931.333 664.595V548.89C931.333 419.886 930.47 416.338 892.941 391.197C849.746 362.262 746.558 329.419 653.534 315.002C583.242 304.109 439.515 301.587 371.462 310.054ZM657.11 328.77C792.028 352.255 897.54 395.269 913.12 433.137C920.821 451.863 905.379 480.334 876.368 500.889C854.099 516.667 746.25 564.382 732.859 564.382C718.89 564.382 129.267 375.865 133.095 372.627C140.059 366.725 289.932 334.599 345.754 327.042C428.626 315.825 587.801 316.706 657.11 328.77ZM193.84 409.938C236.545 423.517 325.473 451.824 391.458 472.849C457.442 493.874 558.99 526.122 617.12 544.513L722.809 577.947L724.449 627.627C725.375 655.721 726.237 661.308 723.061 664C713.8 657.188 711 660.088 683.613 647.704C617.12 617.635 608.562 607.953 542.468 607.953C479.403 607.953 488.201 582.338 422.09 566.555C361.5 538.965 351 530.493 287.899 515.737C229.114 491.221 215 497.491 170.303 481.055C159.1 469.465 140.641 455.745 129.295 450.565C109.266 441.425 108.666 440.34 108.666 413.206C108.666 397.835 110.363 385.257 112.431 385.257C114.505 385.257 151.142 396.363 193.84 409.938ZM797.952 450.923C785.863 462.9 761.44 480.522 743.679 490.079C704.157 511.351 706.602 509.415 711.212 515.737C713.737 519.199 724.575 516.449 743.022 507.657C788.737 485.882 828.499 451.611 828.499 433.989C828.499 424.369 819.993 429.085 797.952 450.923ZM173.577 445.772C169.486 454.796 174.868 467.558 182.757 467.558C185.997 467.558 188.647 461.022 188.647 453.034C188.647 437.833 179.227 433.292 173.577 445.772ZM150.085 501.446C203.5 530.493 204.795 550.749 268.5 549.858C326.5 571 356.086 565.761 395.5 601C453.466 617.635 458.701 640.853 523 639.42C568.955 638.389 575.154 659.676 599 671.551C613.431 678.745 640.155 672.515 648.753 682.067C657.351 691.618 676.229 696.832 703 702.148C724.983 713.912 725.666 705.43 725.666 733.887C725.666 749.829 724.495 762.871 723.061 762.871C720.587 762.871 629.465 730.503 334.328 624.79C262.059 598.904 181.723 570.148 155.798 560.886L108.666 544.049V500.962C108.666 471.392 104.101 486.114 108.666 486.114C112.328 486.114 131.038 485.054 150.085 501.446ZM322.382 488.743C317.543 499.432 323.982 504.888 332.711 497.491C337.864 493.124 337.881 490.418 332.803 486.114C327.718 481.805 325.239 482.43 322.382 488.743ZM245.777 496.605C245.777 499.268 248.348 501.446 251.49 501.446C254.632 501.446 257.203 499.268 257.203 496.605C257.203 493.942 254.632 491.764 251.49 491.764C248.348 491.764 245.777 493.942 245.777 496.605ZM915.199 534.115C913.657 569.509 909.974 574.219 899.587 583.911C894.075 589.057 878.439 592.314 859.5 603.5C833.82 618.668 804.649 635.154 779.5 647.704C760.393 657.238 742.628 671.551 738.568 671.551C736.659 671.551 736.903 654.491 737.497 628.528L738.571 581.326L795.821 558.316C845.781 538.234 901.745 506.752 907.527 495.477C913.971 482.909 916.81 497.205 915.199 534.115ZM142.944 530.493C142.944 536.734 145.834 540.166 150.085 538.965C154.015 537.857 157.226 534.042 157.226 530.493C157.226 526.945 154.015 523.13 150.085 522.021C145.834 520.821 142.944 524.253 142.944 530.493ZM428.592 530.493C428.592 535.819 431.163 540.176 434.305 540.176C437.447 540.176 440.018 535.819 440.018 530.493C440.018 525.168 437.447 520.811 434.305 520.811C431.163 520.811 428.592 525.168 428.592 530.493ZM481.06 562.799C483.688 581.645 497.147 583.306 497.147 564.784C497.147 554.462 494.388 549.858 488.201 549.858C481.854 549.858 479.774 553.629 481.06 562.799ZM546.593 561.758C542.108 571.648 548.301 584.628 556.408 582.338C559.95 581.336 562.846 575.434 562.846 569.223C562.846 556.055 551.529 550.855 546.593 561.758ZM277.924 566.948C273.131 577.526 284.996 596.019 292.492 589.667C299.673 583.582 296.428 563.302 287.899 560.925C284.357 559.938 279.872 562.649 277.924 566.948ZM683.613 596.789C678.111 601.451 679.231 626.364 685.075 629.423C690.874 632.459 697.101 621.285 697.101 607.841C697.101 598.072 689.48 591.822 683.613 596.789ZM914.194 633.19V668.109L882.807 693.259C862.926 709.192 831.784 726.557 797.849 740.64C768.387 752.869 742.662 762.871 740.685 762.871C736.081 762.871 736.098 724.128 740.685 714C742.593 709.788 746.5 711 753.5 702.148C769 702.148 779.247 697.39 803.5 684.666C814.056 679.128 830.686 670.285 842 664C856.905 655.72 875.429 644.549 888 637C907.156 625.497 907.419 626.548 909 623.5C919.5 629.423 909 620 914.194 633.19ZM412.481 628.528C413.487 634.516 416.88 639.42 420.022 639.42C423.164 639.42 426.558 634.516 427.563 628.528C428.815 621.033 426.467 617.635 420.022 617.635C413.578 617.635 411.23 621.033 412.481 628.528ZM546.445 654.055C544.491 658.374 545.633 666.245 548.981 671.551C553.946 679.409 556.642 680.096 563.521 675.255C574.255 667.703 571.479 649.674 559.282 647.704C554.18 646.881 548.404 649.742 546.445 654.055ZM636.429 687.6C632.493 696.3 638.875 705.924 646.079 702.148C653.317 698.357 652.843 680.571 645.507 680.571C642.262 680.571 638.178 683.732 636.429 687.6Z" fill="url(#paint0_linear_401_4)"/>
</g>
<defs>
<filter id="filter0_d_401_4" x="91" y="305" width="854.332" height="490.264" filterUnits="userSpaceOnUse" color-interpolation-filters="sRGB">
<feFlood flood-opacity="0" result="BackgroundImageFix"/>
<feColorMatrix in="SourceAlpha" type="matrix" values="0 0 0 0 0 0 0 0 0 0 0 0 0 0 0 0 0 0 127 0" result="hardAlpha"/>
<feOffset dx="4" dy="10"/>
<feGaussianBlur stdDeviation="5"/>
<feComposite in2="hardAlpha" operator="out"/>
<feColorMatrix type="matrix" values="0 0 0 0 0 0 0 0 0 0 0 0 0 0 0 0 0 0 0.25 0"/>
<feBlend mode="normal" in2="BackgroundImageFix" result="effect1_dropShadow_401_4"/>
<feBlend mode="normal" in="SourceGraphic" in2="effect1_dropShadow_401_4" result="shape"/>
</filter>
<linearGradient id="paint0_linear_401_4" x1="514.166" y1="305" x2="514.166" y2="775.264" gradientUnits="userSpaceOnUse">
<stop stop-color="#00C1D3"/>
<stop offset="1" stop-color="#F8485D"/>
</linearGradient>
</defs>
</svg>
